<?xml version="1.0" standalone="no"?>
<!DOCTYPE svg PUBLIC "-//W3C//DTD SVG 20010904//EN"
 "http://www.w3.org/TR/2001/REC-SVG-20010904/DTD/svg10.dtd">
<svg version="1.0" xmlns="http://www.w3.org/2000/svg"
 width="512.000000pt" height="512.000000pt" viewBox="0 0 512.000000 512.000000"
 preserveAspectRatio="xMidYMid meet">
<metadata>
Created by potrace 1.14, written by Peter Selinger 2001-2017
</metadata>
<g transform="translate(0.000000,512.000000) scale(0.100000,-0.100000)"
fill="#000000" stroke="none">
<path d="M2705 4434 c-197 -29 -258 -40 -364 -65 -492 -120 -1045 -384 -1656
-794 -477 -319 -572 -411 -639 -614 -39 -118 -50 -208 -41 -351 4 -69 11 -242
14 -385 5 -225 8 -260 22 -263 47 -9 284 203 424 381 40 51 75 87 84 85 18 -4
24 -25 55 -207 30 -172 51 -357 70 -609 8 -101 16 -186 20 -189 12 -12 58 10
118 55 78 60 187 185 279 320 48 70 76 102 87 100 32 -6 149 -552 201 -938 40
-290 38 -280 59 -280 9 0 52 42 96 93 285 336 784 844 1060 1080 530 454 977
709 1398 798 144 31 378 31 490 1 174 -47 275 -102 391 -214 44 -42 86 -74 93
-71 29 11 113 273 139 433 75 469 -135 797 -605 945 -97 30 -289 65 -360 65
l-48 0 -56 75 c-127 169 -295 312 -472 402 -209 107 -367 143 -639 148 -104 2
-203 1 -220 -1z"/>
</g>
</svg>
